<?xml version="1.0" standalone="no"?>
<!DOCTYPE svg PUBLIC "-//W3C//DTD SVG 1.1//EN" "http://www.w3.org/Graphics/SVG/1.1/DTD/svg11.dtd" >
<svg xmlns="http://www.w3.org/2000/svg">
<metadata>Generated by IcoMoon</metadata>
<defs>
<font id="icomoon" horiz-adv-x="1024">
<font-face units-per-em="1024" ascent="960" descent="-64" />
<missing-glyph horiz-adv-x="1024" />
<glyph unicode="&#x20;" horiz-adv-x="512" d="" />
<glyph unicode="&#xe900;" glyph-name="left-arrow" horiz-adv-x="745" d="M209.455 603.152l488.727-465.455-162.909-155.152-488.727 465.455 162.909 155.152zM46.545 448l488.727 465.455 162.909-155.152-488.727-465.455-162.909 155.152z" />
<glyph unicode="&#xe901;" glyph-name="arrow-down" horiz-adv-x="1463" d="M487.619 192l731.429 768 243.81-256-731.429-768-243.81 256zM731.429-64l-731.429 768 243.81 256 731.429-768-243.81-256z" />
<glyph unicode="&#xe902;" glyph-name="calendar" horiz-adv-x="853" d="M663.706 866.909h142.222c12.572 0 24.627-4.904 33.519-13.633s13.887-20.568 13.887-32.913v-837.817c0-12.345-4.995-24.183-13.887-32.916-8.892-8.727-20.946-13.631-33.519-13.631h-758.52c-12.573 0-24.631 4.904-33.522 13.631-8.891 8.732-13.885 20.571-13.885 32.916v837.817c0 12.345 4.995 24.184 13.885 32.913s20.949 13.633 33.522 13.633h142.222v93.091h94.815v-93.091h284.444v93.091h94.817v-93.091zM189.629 587.637v-93.091h474.076v93.091h-474.076zM189.629 401.455v-93.088h474.076v93.088h-474.076z" />
<glyph unicode="&#xe903;" d="M0 857.6c0 56.554 45.846 102.4 102.4 102.4h819.2c56.556 0 102.4-45.846 102.4-102.4v-819.2c0-56.556-45.844-102.4-102.4-102.4h-819.2c-56.554 0-102.4 45.844-102.4 102.4v819.2z" />
<glyph unicode="&#xe904;" d="M455.984 291.85l-163.409 163.409 63.195 63.196 163.408-163.408-63.194-63.196z" />
<glyph unicode="&#xe905;" d="M392.789 355.046l263.626 263.622 63.191-63.195-263.622-263.623-63.195 63.196z" />
<glyph unicode="&#xe906;" glyph-name="check-arrow" horiz-adv-x="1280" d="M500.023 57.704l-408.523 408.524 157.989 157.988 408.522-408.524-157.988-157.988zM342.035 215.692l659.059 659.058 157.988-157.988-659.059-659.058-157.988 157.988z" />
<glyph unicode="&#xe907;" glyph-name="checkbox-no" d="M102.4 934.4h819.2c42.415 0 76.8-34.385 76.8-76.8v-819.2c0-42.415-34.385-76.8-76.8-76.8h-819.2c-42.415 0-76.8 34.385-76.8 76.8v819.2c0 42.415 34.385 76.8 76.8 76.8z" />
<glyph unicode="&#xe908;" glyph-name="config" horiz-adv-x="1097" d="M503.376 960c-20.051 0-37.473-13.196-41.299-31.636l-18.701-87.273c-42.29-9.811-82.33-25.393-119.611-46.545l-78.701 49.454c-16.63 10.427-39.194 8.069-53.377-5.091l-62.727-58.546c-14.178-13.233-16.661-34.266-5.454-49.818l53.376-74.182c-22.442-34.812-39.151-72.202-49.48-111.636l-93.117-17.091c-19.796-3.538-34.286-19.83-34.286-38.546v-82.909c0-18.715 14.6-35.313 34.286-38.909l93.507-17.091c10.475-39.391 27.28-76.886 49.87-111.636l-52.987-73.82c-11.205-15.55-9.114-36.579 5.064-49.818l62.727-58.544c14.179-13.239 37.105-15.184 53.767-4.725l79.091 49.452c37.292-20.955 77.373-36.542 119.611-46.182l18.311-86.908c3.896-18.337 21.631-32 41.689-32h88.831c20.043 0 37.479 13.59 41.299 32l18.311 87.274c42.312 9.779 82.302 25.41 119.612 46.541l79.089-49.452c16.699-10.511 39.168-8.214 53.38 5.091l62.727 58.544c14.175 13.239 16.662 34.267 5.449 49.818l-53.372 74.185c22.374 34.712 39.146 71.972 49.481 111.273l93.111 17.454c19.697 3.595 34.289 19.831 34.289 38.546v82.909c-0.029 18.698-14.57 35.307-34.289 38.909l-93.506 17.091c-10.503 39.469-27.209 76.826-49.869 111.636l52.992 73.454c11.205 15.552 9.106 36.948-5.069 50.182l-62.727 58.545c-14.168 13.227-37.142 15.162-53.767 4.728l-78.702-49.818c-37.478 21.149-77.509 36.481-119.998 46.182l-18.311 87.273c-3.825 18.403-21.602 31.636-41.689 31.636h-88.831zM509.61 913.455h76.363l19.87-94.909c0.975-4.481 3.342-8.596 6.807-11.829s7.872-5.443 12.674-6.352c48.195-9.091 93.275-26.352 134.418-51.636 4.096-2.548 8.909-3.908 13.831-3.908s9.735 1.36 13.831 3.908l86.104 54.181 54.155-50.545-57.666-80c-2.787-3.787-4.308-8.259-4.381-12.854-0.066-4.594 1.324-9.105 3.994-12.964 27.246-38.331 46.182-80.537 56.101-125.455 1.046-4.415 3.445-8.451 6.905-11.615s7.826-5.32 12.581-6.203l102.078-18.909v-71.273l-101.691-18.545c-4.798-0.91-9.209-3.119-12.676-6.352-3.46-3.234-5.829-7.348-6.802-11.829-9.743-44.965-28.643-87.052-55.713-125.455-2.677-3.859-4.067-8.37-3.994-12.965 0.066-4.594 1.595-9.067 4.381-12.855l58.053-80.362-54.155-50.549-86.111 54.184c-4.096 2.545-8.901 3.906-13.824 3.906s-9.735-1.36-13.831-3.906c-41.047-25.417-85.881-42.737-134.029-51.997-4.854-0.936-9.3-3.196-12.769-6.502s-5.807-7.497-6.712-12.047l-19.87-95.269h-76.363l-19.871 94.903c-0.905 4.549-3.241 8.748-6.711 12.047-3.47 3.306-7.916 5.566-12.769 6.502-48.196 9.092-93.275 26.353-134.415 51.639-4.097 2.545-8.909 3.906-13.831 3.906s-9.735-1.36-13.831-3.906l-86.494-54.184-53.766 50.542 57.662 80.004c2.788 3.789 4.313 8.259 4.382 12.854s-1.319 9.106-3.992 12.964c-27.243 38.331-46.203 80.176-56.104 125.091-0.974 4.481-3.341 8.596-6.806 11.829s-7.873 5.443-12.675 6.352l-102.078 18.909v70.909l101.688 18.91c4.802 0.909 9.21 3.118 12.674 6.352s5.832 7.348 6.806 11.829c9.74 44.98 28.638 87.052 55.714 125.455 2.591 3.82 3.934 8.261 3.864 12.782s-1.547 8.924-4.253 12.673l-58.052 80.728 54.156 50.545 86.104-54.182c4.096-2.548 8.909-3.908 13.831-3.908s9.735 1.36 13.831 3.908c41.047 25.424 85.883 42.742 134.026 52 4.854 0.935 9.3 3.198 12.769 6.501s5.806 7.496 6.712 12.044l19.87 94.909zM548.571 691.272c-143.394 0-260.65-109.437-260.65-243.272 0-133.837 117.256-242.907 260.65-242.907s260.257 109.071 260.257 242.907c0 133.835-116.863 243.272-260.257 243.272zM548.571 644.727c116.345 0 210.388-88.136 210.388-196.727 0-108.593-94.043-196.364-210.388-196.364s-210.779 87.771-210.779 196.364c0 108.591 94.434 196.727 210.779 196.727zM509.61 913.455l-19.87-94.909c-0.906-4.548-3.242-8.741-6.712-12.044s-7.915-5.566-12.769-6.501c-48.143-9.258-92.978-26.576-134.026-52-4.097-2.548-8.909-3.908-13.831-3.908s-9.735 1.36-13.831 3.908l-86.104 54.182-54.156-50.545 58.052-80.728c2.706-3.749 4.185-8.153 4.253-12.673s-1.273-8.961-3.864-12.782c-27.077-38.403-45.975-80.475-55.714-125.455-0.974-4.481-3.341-8.596-6.806-11.829s-7.872-5.443-12.674-6.352l-101.688-18.91v-70.909l102.078-18.909c4.802-0.909 9.21-3.119 12.675-6.352s5.832-7.348 6.806-11.829c9.901-44.916 28.861-86.76 56.104-125.091 2.673-3.858 4.062-8.37 3.992-12.964s-1.594-9.065-4.382-12.854l-57.662-80.004 53.766-50.542 86.494 54.184c4.096 2.545 8.909 3.906 13.831 3.906s9.735-1.36 13.831-3.906c41.141-25.285 86.219-42.547 134.415-51.639 4.854-0.936 9.299-3.196 12.769-6.502 3.47-3.299 5.806-7.497 6.711-12.047l19.871-94.903h76.363l19.87 95.269c0.905 4.549 3.242 8.741 6.712 12.047s7.915 5.566 12.769 6.502c48.148 9.26 92.982 26.58 134.029 51.997 4.096 2.545 8.909 3.906 13.831 3.906s9.728-1.36 13.824-3.906l86.111-54.184 54.155 50.549-58.053 80.362c-2.787 3.788-4.315 8.261-4.381 12.855-0.073 4.595 1.317 9.106 3.994 12.965 27.070 38.403 45.97 80.489 55.713 125.455 0.973 4.481 3.343 8.596 6.802 11.829 3.467 3.234 7.877 5.443 12.676 6.352l101.691 18.545v71.273l-102.078 18.909c-4.754 0.884-9.121 3.039-12.581 6.203s-5.859 7.2-6.905 11.615c-9.918 44.918-28.855 87.124-56.101 125.455-2.67 3.859-4.059 8.37-3.994 12.964 0.073 4.595 1.595 9.068 4.381 12.854l57.666 80-54.155 50.545-86.104-54.181c-4.096-2.548-8.909-3.908-13.831-3.908s-9.735 1.36-13.831 3.908c-41.143 25.284-86.222 42.545-134.418 51.636-4.802 0.909-9.21 3.119-12.674 6.352s-5.832 7.348-6.807 11.829l-19.87 94.909h-76.363zM287.922 448c0 133.835 117.256 243.272 260.65 243.272s260.257-109.437 260.257-243.272c0-133.837-116.863-242.907-260.257-242.907s-260.65 109.071-260.65 242.907z" />
<glyph unicode="&#xe909;" glyph-name="copy" horiz-adv-x="931" d="M198.506-5.716v0zM82.291 103.661v0zM839.266 194.504v0zM635.885 3.091v0zM781.819 876.319v0zM821.634 838.847v0zM896 448c0 19.279-15.63 34.909-34.909 34.909s-34.909-15.63-34.909-34.909h69.818zM705.941 292.85v0zM553.43 235.352v0zM608.284 290.206v0zM395.636 17.455c-19.28 0-34.909-15.63-34.909-34.909s15.629-34.909 34.909-34.909v69.818zM279.273 715.636c-19.28 0-34.909-15.629-34.909-34.909s15.629-34.909 34.909-34.909v69.818zM605.091 645.818c19.279 0 34.909 15.629 34.909 34.909s-15.63 34.909-34.909 34.909v-69.818zM279.273 529.455c-19.28 0-34.909-15.629-34.909-34.909s15.629-34.909 34.909-34.909v69.818zM418.909 459.636c19.28 0 34.909 15.63 34.909 34.909s-15.629 34.909-34.909 34.909v-69.818zM465.455 878.545h35.966v69.818h-35.966v-69.818zM826.182 574.942v-118.48h69.818v118.48h-69.818zM104.727 253.356v287.735h-69.818v-287.735h69.818zM357.554 17.455c-86.693 0-121.078 0.498-147.485 9.77l-23.126-65.88c40.473-14.206 89.826-13.708 170.611-13.708v69.818zM34.909 253.356c0-38.949-0.018-69.846 1.635-94.897 1.673-25.363 5.164-47.141 13.293-67.658l64.907 25.726c-4.343 10.957-7.088 24.618-8.534 46.527-1.466 22.225-1.483 50.437-1.483 90.303h-69.818zM210.069 27.224c-44.726 15.7-79.194 48.598-95.325 89.302l-64.907-25.726c23.972-60.49 74.313-107.413 137.106-129.457l23.126 65.88zM826.182 456.462c0-69.423-0.019-119.799-2.653-159.749-2.616-39.638-7.699-66.588-16.719-89.349l64.908-25.726c12.809 32.317 18.637 67.389 21.481 110.48 2.821 42.78 2.802 95.842 2.802 164.343h-69.818zM357.554-52.364c143.587 0 224.344-0.498 289.898 22.514l-23.128 65.876c-51.484-18.074-117.271-18.572-266.77-18.572v-69.818zM806.81 207.365c-31.167-78.653-97.438-141.484-182.486-171.338l23.128-65.876c103.112 36.198 185.256 113.050 224.265 211.489l-64.908 25.726zM501.42 878.545c76.646 0 131.435-0.044 173.74-4.454 41.747-4.352 67.137-12.629 86.556-26.31l40.211 57.075c-33.289 23.455-72.206 33.745-119.529 38.677-46.769 4.874-105.83 4.83-180.978 4.83v-69.818zM896 574.942c0 70.588 0.056 126.574-5.171 171.004-5.325 45.25-16.51 82.745-41.872 114.632l-54.644-43.461c14.094-17.721 22.635-40.746 27.178-79.33 4.636-39.404 4.692-90.567 4.692-162.845h69.818zM761.716 847.782c12.432-8.759 23.398-19.097 32.596-30.665l54.644 43.461c-13.41 16.859-29.258 31.757-47.030 44.278l-40.211-57.075zM465.455 948.364c-92.322 0-164.871 0.066-221.443-7.093-57.369-7.259-103.579-22.48-140.18-56.927l47.851-50.842c21.339 20.084 50.725 32.129 101.093 38.503 51.166 6.474 118.495 6.54 212.678 6.54v69.818zM104.727 541.091c0 88.814 0.083 151.696 6.892 199.356 6.632 46.427 19.024 73.253 40.064 93.056l-47.851 50.842c-36.899-34.729-53.477-79.052-61.33-134.024-7.677-53.74-7.593-122.509-7.593-209.229h69.818zM826.182 448c0-66.406-53.834-120.241-120.241-120.241v-69.818c104.965 0 190.059 85.090 190.059 190.059h-69.818zM587.152 226.313c3.942 14.727 15.444 26.228 30.166 30.171l-18.069 67.44c-38.819-10.398-69.139-40.718-79.537-79.537l67.44-18.074zM395.636-52.364c104.969 0 190.059 85.094 190.059 190.059h-69.818c0-66.406-53.833-120.241-120.241-120.241v-69.818zM585.695 137.695c0 8.648-0.377 17.473-0.759 25.716-0.391 8.485-0.791 16.333-0.954 24.157-0.33 15.858 0.433 28.546 3.17 38.744l-67.44 18.074c-5.339-19.931-5.897-40.574-5.534-58.266 0.186-8.951 0.642-17.925 1.015-25.949 0.386-8.266 0.684-15.625 0.684-22.477h69.818zM705.941 327.759c-6.851 0-14.21 0.298-22.477 0.684-8.024 0.372-16.998 0.829-25.949 1.015-17.692 0.363-38.335-0.195-58.266-5.534l18.069-67.44c10.203 2.737 22.891 3.5 38.749 3.17 7.824-0.163 15.672-0.563 24.157-0.954 8.243-0.382 17.068-0.759 25.716-0.759v69.818zM279.273 645.818h325.818v69.818h-325.818v-69.818zM279.273 459.636h139.636v69.818h-139.636v-69.818z" />
<glyph unicode="&#xe90a;" glyph-name="cross" d="M0 805.273l154.689 154.689 789.903-789.903-154.689-154.689-789.903 789.903zM0 167.909l787.693 792.105 155.122-154.257-787.695-792.101-155.12 154.253z" />
<glyph unicode="&#xe90b;" glyph-name="documents" horiz-adv-x="916" d="M865.312-64h-814.412c-13.5 0-26.446 5.395-35.992 14.994-9.546 9.604-14.908 22.625-14.908 36.206v921.6c0 13.579 5.363 26.602 14.908 36.204s22.492 14.996 35.992 14.996h814.412c13.495 0 26.446-5.394 35.991-14.996s14.907-22.625 14.907-36.204v-921.6c0-13.581-5.363-26.602-14.907-36.206-9.545-9.599-22.496-14.994-35.991-14.994zM203.602 755.2v-204.8h203.602v204.8h-203.602zM203.602 448v-102.4h509.005v102.4h-509.005zM203.602 243.2v-102.4h509.005v102.4h-509.005zM509.006 704v-102.4h203.601v102.4h-203.601z" />
<glyph unicode="&#xe90c;" glyph-name="dots" horiz-adv-x="256" d="M256 832c0-70.692-57.308-128-128-128s-128 57.308-128 128c0 70.692 57.308 128 128 128s128-57.308 128-128zM256 448c0-70.692-57.308-128-128-128s-128 57.308-128 128c0 70.692 57.308 128 128 128s128-57.308 128-128zM256 64c0-70.692-57.308-128-128-128s-128 57.308-128 128c0 70.692 57.308 128 128 128s128-57.308 128-128z" />
<glyph unicode="&#xe90d;" glyph-name="help" d="M512 645.818c-32.135 0-58.182-26.049-58.182-58.182 0-19.28-15.629-34.909-34.909-34.909s-34.909 15.629-34.909 34.909c0 70.692 57.308 128 128 128s128-57.308 128-128c0-25.43-7.452-49.225-20.303-69.196-8.048-12.509-17.459-24.449-26.135-35.234l-4.682-5.804c-7.196-8.909-13.81-17.091-19.912-25.484-15.062-20.699-22.058-36.254-22.058-50.465v-23.273c0-19.279-15.63-34.909-34.909-34.909s-34.909 15.63-34.909 34.909v23.273c0 37.204 18.264 67.966 35.421 91.541 7.247 9.964 15.188 19.788 22.412 28.722l4.24 5.257c8.62 10.713 15.96 20.137 21.821 29.246 5.818 9.042 9.197 19.781 9.197 31.416 0 32.133-26.047 58.182-58.182 58.182zM511.581 261.818c-25.707 0-46.545-20.838-46.545-46.545s20.837-46.545 46.545-46.545h0.419c25.707 0 46.545 20.838 46.545 46.545s-20.838 46.545-46.545 46.545h-0.419zM11.636 448c0 276.343 224.020 500.364 500.364 500.364s500.364-224.020 500.364-500.364c0-276.345-224.019-500.364-500.364-500.364-276.343 0-500.364 224.019-500.364 500.364zM512 878.545c-237.784 0-430.545-192.762-430.545-430.545s192.762-430.545 430.545-430.545c237.782 0 430.545 192.763 430.545 430.545 0 237.784-192.763 430.545-430.545 430.545z" />
<glyph unicode="&#xe90e;" glyph-name="location" horiz-adv-x="853" d="M728.366 235.924l-301.699-299.924-301.701 299.924c-59.67 59.318-100.305 134.895-116.768 217.175-16.463 82.278-8.013 167.561 24.281 245.065s86.981 143.747 157.145 190.354c70.165 46.607 152.656 71.483 237.043 71.483s166.878-24.876 237.045-71.483c70.161-46.606 124.848-112.85 157.144-190.354 32.29-77.504 40.744-162.787 24.28-245.065-16.464-82.28-57.099-157.857-116.77-217.175zM426.667 441.593c25.147 0 49.263 9.931 67.044 27.607s27.771 41.651 27.771 66.649c0 24.999-9.99 48.973-27.771 66.649s-41.898 27.607-67.044 27.607c-25.147 0-49.263-9.931-67.044-27.607s-27.771-41.651-27.771-66.649c0-24.998 9.99-48.973 27.771-66.649s41.898-27.607 67.044-27.607z" />
<glyph unicode="&#xe90f;" horiz-adv-x="572" d="M126.201 137.46l150.14 628.144h144.963l150.139-628.144-226.072-179.468-219.17 179.468z" />
<glyph unicode="&#xe910;" horiz-adv-x="572" d="M421.304 803.824h-144.963l-53.498 79.764c-14.922 28.524 18.704 54.71 41.537 56.5h170.561c20.986 0 46.703-35.377 34.683-56.5l-48.321-79.764z" />
<glyph unicode="&#xe911;" horiz-adv-x="572" d="M0 326.117v143.601l237.504 257.415-91.687-365.914-145.816-35.102z" />
<glyph unicode="&#xe912;" horiz-adv-x="572" d="M222.84 883.589c-14.922 28.524 18.705 54.71 41.537 56.5h85.28l-0.837-136.264h-72.482l-53.498 79.764z" />
<glyph unicode="&#xe913;" horiz-adv-x="572" d="M345.031 765.588h76.201l68.349-285.188-144.55-142.974v428.162z" />
<glyph unicode="&#xe914;" horiz-adv-x="572" d="M174.271 341.781l-11.713-49.004c98.212 95.557 295.812 288.325 300.507 294.93l-5.87 24.555-282.924-270.481zM420.539 765.618l7.975-33.36-208.26-198.094 9.364 39.177 190.92 192.277zM490.478 473.013l-356.86-342.236 21.44-17.559 342.985 328.147-7.566 31.648zM251.965 33.864l-20.925 17.769 293.335 279.561 8.153-34.099-280.563-263.231z" />
<glyph unicode="&#xe915;" d="M1024 448c0-282.77-229.23-512-512-512s-512 229.23-512 512c0 282.77 229.23 512 512 512s512-229.23 512-512z" />
<glyph unicode="&#xe916;" d="M716.8 499.2v-102.4h-409.6v102.4h409.6z" />
<glyph unicode="&#xe917;" glyph-name="notebook" horiz-adv-x="1097" d="M208.979 960v-1024.007h-208.979v1024.007h208.979zM313.469 960h522.707c57.578 0 104.229-45.978 104.229-101.889v-820.231c0-56.269-46.651-101.888-104.229-101.888h-522.707v1024.007zM992.651 755.199h104.492v-204.801h-104.492v204.801zM992.651 447.997h104.492v-204.801h-104.492v204.801zM626.939 447.997c27.712 0 54.29 10.789 73.885 29.993s30.604 45.25 30.604 72.408c0 27.159-11.009 53.204-30.604 72.409s-46.173 29.992-73.885 29.992c-27.712 0-54.29-10.789-73.885-29.992s-30.604-45.25-30.604-72.409c0-27.158 11.009-53.204 30.604-72.408s46.173-29.993 73.885-29.993zM470.204 243.196h313.471c0 40.738-16.516 79.806-45.904 108.612-29.397 28.806-69.263 44.989-110.831 44.989s-81.435-16.183-110.828-44.989c-29.393-28.806-45.907-67.874-45.907-108.612z" />
<glyph unicode="&#xe918;" glyph-name="notification" horiz-adv-x="960" d="M960 102.701h-960v95.251h48v331.921c0 237.568 193.44 430.127 432 430.127s432-192.559 432-430.127v-331.921h48v-95.251zM360 55.072h240c0-31.584-12.643-61.869-35.148-84.198s-53.027-34.874-84.852-34.874c-31.826 0-62.348 12.544-84.853 34.874s-35.147 52.614-35.147 84.198z" />
<glyph unicode="&#xe919;" glyph-name="pencil" d="M564.116 741.831l241.715-241.772-564.116-564.058h-241.715v241.772l564.116 564.058zM644.687 822.403l120.858 120.914c10.685 10.682 25.176 16.683 40.286 16.683s29.6-6.001 40.286-16.683l161.201-161.2c10.684-10.686 16.683-25.177 16.683-40.286s-5.999-29.6-16.683-40.286l-120.917-120.858-241.713 241.715z" />
<glyph unicode="&#xe91a;" d="M1024 448c0-282.77-229.23-512-512-512s-512 229.23-512 512c0 282.77 229.23 512 512 512s512-229.23 512-512z" />
<glyph unicode="&#xe91b;" d="M716.8 499.2v-102.4h-409.6v102.4h409.6z" />
<glyph unicode="&#xe91c;" d="M563.2 243.2h-102.4v409.6h102.4v-409.6z" />
<glyph unicode="&#xe91d;" glyph-name="plus-white" horiz-adv-x="951" d="M365.714 923.429h219.429v-950.857h-219.429v950.857zM950.857 557.714v-219.429h-950.857v219.429h950.857z" />
<glyph unicode="&#xe91e;" glyph-name="refresh" horiz-adv-x="1075" d="M1046.999 664.294c-0.404 1.211-1.285 2.212-2.452 2.785l-53.192 26.222c-1.157 0.572-2.478 0.66-3.702 0.242-1.219-0.418-2.212-1.299-2.796-2.444l-35.072-71.18c-18.683 45.256-44.462 86.856-76.692 123.789-39.491 45.244-87.101 81.649-141.501 108.179-54.502 26.585-112.609 41.699-172.703 44.925-8.059 0.43-16.225 0.65-24.264 0.65-49.7 0-98.919-8.267-146.299-24.582-55.163-19-105.339-47.985-149.142-86.151-45.354-39.531-81.836-87.208-108.422-141.722-16.567-33.972-28.809-69.805-36.371-106.506-0.253-1.255-0.011-2.565 0.694-3.644s1.805-1.827 3.071-2.080l58.092-11.977c2.62-0.54 5.185 1.145 5.724 3.765 6.407 31.055 16.766 61.405 30.813 90.192 44.529 91.303 121.961 159.809 218.010 192.878 40.313 13.881 82.078 20.916 124.143 20.916 57.769 0 113.761-13.023 166.39-38.694 84.168-41.050 149.407-110.612 184.842-196.742l-77.466 37.341c-2.422 1.156-5.309 0.154-6.472-2.268l-25.764-53.434c-1.152-2.411-0.143-5.306 2.268-6.462l175.473-84.577c0.696-0.319 1.403-0.474 2.104-0.474 1.782 0 3.502 0.991 4.347 2.708l86.067 174.626c0.604 1.167 0.681 2.499 0.271 3.721zM28.154 241.347c0.407-1.213 1.288-2.212 2.455-2.785l53.193-26.225c1.156-0.568 2.477-0.66 3.699-0.241s2.213 1.3 2.796 2.442l35.073 71.183c18.681-45.256 44.463-86.856 76.695-123.791 39.487-45.245 87.098-81.649 141.502-108.18 54.502-26.583 112.604-41.697 172.699-44.923 8.059-0.43 16.225-0.65 24.264-0.65 49.7 0 98.918 8.269 146.299 24.581 55.163 19 105.339 47.985 149.14 86.154 45.358 39.532 81.838 87.209 108.421 141.722 16.568 33.971 28.81 69.801 36.372 106.506 0.256 1.254 0.010 2.565-0.691 3.64-0.707 1.080-1.807 1.828-3.072 2.084l-58.092 11.976c-2.621 0.538-5.187-1.147-5.724-3.763-6.405-31.058-16.768-61.404-30.812-90.194-44.529-91.305-121.964-159.811-218.010-192.876-40.315-13.885-82.079-20.915-124.14-20.915-57.774 0-113.763 13.020-166.394 38.692-84.17 41.052-149.406 110.612-184.842 196.741l77.466-37.34c2.422-1.157 5.306-0.154 6.473 2.268l25.76 53.432c1.156 2.412 0.143 5.309-2.268 6.467l-175.474 84.577c-0.693 0.317-1.398 0.471-2.102 0.471-1.783 0-3.501-0.988-4.348-2.708l-86.063-174.628c-0.605-1.162-0.683-2.499-0.275-3.717z" />
<glyph unicode="&#xe91f;" glyph-name="save" horiz-adv-x="1097" d="M93.603 960h739.553l210.893-210.887c10.664-10.666 16.662-25.134 16.669-40.221v-716.002c0-15.089-5.998-29.557-16.669-40.229-10.664-10.672-25.132-16.662-40.221-16.662h-910.224c-15.088 0-29.558 5.99-40.226 16.662s-16.662 25.139-16.662 40.229v910.221c0 15.088 5.994 29.558 16.662 40.227s25.139 16.662 40.226 16.662zM548.714 106.664c45.264 0 88.673 17.986 120.68 49.993 32.006 32 49.987 75.412 49.987 120.676s-17.981 88.673-49.987 120.679c-32.007 32.007-75.416 49.987-120.68 49.987s-88.673-17.981-120.679-49.987c-32.007-32.006-49.987-75.415-49.987-120.679s17.981-88.676 49.987-120.676c32.006-32.007 75.415-49.993 120.679-49.993zM150.492 846.222v-227.555h568.889v227.555h-568.889z" />
<glyph unicode="&#xe920;" glyph-name="search" d="M712.393 178.798l66.776 66.776 200.85-200.847-66.779-66.779-200.847 200.85zM0 521.143c0 242.381 196.476 438.857 438.857 438.857s438.857-196.476 438.857-438.857c0-242.381-196.476-438.857-438.857-438.857s-438.857 196.476-438.857 438.857zM438.857 228.571c161.583 0 292.571 130.989 292.571 292.571s-130.989 292.571-292.571 292.571c-161.583 0-292.571-130.989-292.571-292.571s130.989-292.571 292.571-292.571z" />
<glyph unicode="&#xe921;" glyph-name="sing-up" horiz-adv-x="1170" d="M687.738 55.888c0-16.53-13.709-29.974-30.566-29.974h-534.907c-16.857 0-30.566 13.444-30.566 29.974v784.226c0 16.53 13.709 29.972 30.566 29.972h534.907c16.857 0 30.566-13.442 30.566-29.972v-231.843h91.701v231.843c0 66.102-54.854 119.886-122.268 119.886h-534.907c-67.414 0-122.265-53.784-122.265-119.886v-784.226c0-66.107 54.851-119.888 122.265-119.888h534.907c67.414 0 122.268 53.782 122.268 119.888v231.84h-91.701v-231.84zM918.148 695.233l-64.834-63.569 141.444-138.707h-668.739v-89.915h668.769l-141.473-138.722 64.834-63.566 252.138 247.23-252.138 247.248z" />
<glyph unicode="&#xe922;" glyph-name="window" horiz-adv-x="1097" d="M1097.143 411.483v-384.055c0-14.548-5.778-28.504-16.069-38.788-10.284-10.291-24.24-16.069-38.788-16.069h-438.857v438.912h493.714zM493.714 411.483v-438.912h-438.857c-14.549 0-28.502 5.778-38.79 16.069-10.288 10.284-16.067 24.24-16.067 38.788v384.055h493.714zM493.714 960v-438.802h-493.714v383.945c0 14.549 5.78 28.502 16.067 38.79s24.241 16.067 38.79 16.067h438.857zM1042.286 960c14.548 0 28.504-5.78 38.788-16.067 10.291-10.288 16.069-24.241 16.069-38.79v-383.945h-493.714v438.802h438.857z" />
</font>
</defs>
</svg>
